<svg xmlns="http://www.w3.org/2000/svg" viewBox="-10 -70 825 186" width="825" height="186">
<rect x="-10" y="-70" width="825" height="186" fill="#0d1117"/>
<rect x="3.0" y="3.0" width="11" height="11" rx="2" fill="#161b22"/>
<rect x="17.0" y="3.0" width="11" height="11" rx="2" fill="#161b22"/>
<rect x="31.0" y="3.0" width="11" height="11" rx="2" fill="#161b22"/>
<rect x="45.0" y="3.0" width="11" height="11" rx="2" fill="#161b22"/>
<rect x="59.0" y="3.0" width="11" height="11" rx="2" fill="#161b22"/>
<rect x="73.0" y="3.0" width="11" height="11" rx="2" fill="#161b22"/>
<rect x="87.0" y="3.0" width="11" height="11" rx="2" fill="#161b22"/>
<rect x="101.0" y="3.0" width="11" height="11" rx="2" fill="#161b22"/>
<rect x="115.0" y="3.0" width="11" height="11" rx="2" fill="#161b22"/>
<rect x="129.0" y="3.0" width="11" height="11" rx="2" fill="#161b22"/>
<rect x="143.0" y="3.0" width="11" height="11" rx="2" fill="#161b22"/>
<rect x="157.0" y="3.0" width="11" height="11" rx="2" fill="#161b22"/>
<rect x="171.0" y="3.0" width="11" height="11" rx="2" fill="#161b22"/>
<rect x="185.0" y="3.0" width="11" height="11" rx="2" fill="#161b22"/>
<rect x="199.0" y="3.0" width="11" height="11" rx="2" fill="#161b22"/>
<rect x="213.0" y="3.0" width="11" height="11" rx="2" fill="#161b22"/>
<rect x="227.0" y="3.0" width="11" height="11" rx="2" fill="#161b22"/>
<rect x="241.0" y="3.0" width="11" height="11" rx="2" fill="#161b22"/>
<rect x="255.0" y="3.0" width="11" height="11" rx="2" fill="#161b22"/>
<rect x="269.0" y="3.0" width="11" height="11" rx="2" fill="#161b22"/>
<rect x="283.0" y="3.0" width="11" height="11" rx="2" fill="#a3a3a3"/>
<rect x="297.0" y="3.0" width="11" height="11" rx="2" fill="#a3a3a3"/>
<rect x="311.0" y="3.0" width="11" height="11" rx="2" fill="#161b22"/>
<rect x="325.0" y="3.0" width="11" height="11" rx="2" fill="#e6e6e6"/>
<rect x="339.0" y="3.0" width="11" height="11" rx="2" fill="#e6e6e6"/>
<rect x="353.0" y="3.0" width="11" height="11" rx="2" fill="#e6e6e6"><animate attributeName="x" values="353.0;353.0;353.0;353.0;779.5;779.5;779.5;779.5" keyTimes="0.0;0.72;0.73667;0.75;0.78;0.8;0.81333;1.0" dur="19.200000000000003s" repeatCount="indefinite" calcMode="linear"/><animate attributeName="y" values="3.0;3.0;3.0;-35.5;-35.5;45.0;45.0;45.0" keyTimes="0.0;0.72;0.73667;0.75;0.78;0.8;0.81333;1.0" dur="19.200000000000003s" repeatCount="indefinite" calcMode="linear"/><animate attributeName="opacity" values="1;1;1;1;1;1;0;0" keyTimes="0.0;0.72;0.73667;0.75;0.78;0.8;0.81333;1.0" dur="19.200000000000003s" repeatCount="indefinite" calcMode="linear"/></rect>
<rect x="367.0" y="3.0" width="11" height="11" rx="2" fill="#161b22"/>
<rect x="381.0" y="3.0" width="11" height="11" rx="2" fill="#161b22"/>
<rect x="395.0" y="3.0" width="11" height="11" rx="2" fill="#161b22"/>
<rect x="409.0" y="3.0" width="11" height="11" rx="2" fill="#161b22"/>
<rect x="423.0" y="3.0" width="11" height="11" rx="2" fill="#161b22"/>
<rect x="437.0" y="3.0" width="11" height="11" rx="2" fill="#161b22"/>
<rect x="451.0" y="3.0" width="11" height="11" rx="2" fill="#161b22"/>
<rect x="465.0" y="3.0" width="11" height="11" rx="2" fill="#161b22"/>
<rect x="479.0" y="3.0" width="11" height="11" rx="2" fill="#161b22"/>
<rect x="493.0" y="3.0" width="11" height="11" rx="2" fill="#161b22"/>
<rect x="507.0" y="3.0" width="11" height="11" rx="2" fill="#161b22"/>
<rect x="521.0" y="3.0" width="11" height="11" rx="2" fill="#161b22"/>
<rect x="535.0" y="3.0" width="11" height="11" rx="2" fill="#161b22"/>
<rect x="549.0" y="3.0" width="11" height="11" rx="2" fill="#161b22"/>
<rect x="563.0" y="3.0" width="11" height="11" rx="2" fill="#161b22"/>
<rect x="577.0" y="3.0" width="11" height="11" rx="2" fill="#161b22"/>
<rect x="591.0" y="3.0" width="11" height="11" rx="2" fill="#161b22"/>
<rect x="605.0" y="3.0" width="11" height="11" rx="2" fill="#161b22"/>
<rect x="619.0" y="3.0" width="11" height="11" rx="2" fill="#161b22"/>
<rect x="633.0" y="3.0" width="11" height="11" rx="2" fill="#161b22"/>
<rect x="647.0" y="3.0" width="11" height="11" rx="2" fill="#161b22"/>
<rect x="661.0" y="3.0" width="11" height="11" rx="2" fill="#161b22"/>
<rect x="675.0" y="3.0" width="11" height="11" rx="2" fill="#6e6e6e"><animate attributeName="x" values="675.0;675.0;675.0;675.0;779.5;779.5;779.5;779.5" keyTimes="0.0;0.88667;0.90333;0.91667;0.94667;0.96667;0.98;1.0" dur="19.200000000000003s" repeatCount="indefinite" calcMode="linear"/><animate attributeName="y" values="3.0;3.0;3.0;-35.5;-35.5;45.0;45.0;45.0" keyTimes="0.0;0.88667;0.90333;0.91667;0.94667;0.96667;0.98;1.0" dur="19.200000000000003s" repeatCount="indefinite" calcMode="linear"/><animate attributeName="opacity" values="1;1;1;1;1;1;0;0" keyTimes="0.0;0.88667;0.90333;0.91667;0.94667;0.96667;0.98;1.0" dur="19.200000000000003s" repeatCount="indefinite" calcMode="linear"/></rect>
<rect x="689.0" y="3.0" width="11" height="11" rx="2" fill="#161b22"/>
<rect x="703.0" y="3.0" width="11" height="11" rx="2" fill="#3d3d3d"/>
<rect x="717.0" y="3.0" width="11" height="11" rx="2" fill="#161b22"/>
<rect x="731.0" y="3.0" width="11" height="11" rx="2" fill="#e6e6e6"/>
<rect x="3.0" y="17.0" width="11" height="11" rx="2" fill="#161b22"/>
<rect x="17.0" y="17.0" width="11" height="11" rx="2" fill="#161b22"/>
<rect x="31.0" y="17.0" width="11" height="11" rx="2" fill="#161b22"/>
<rect x="45.0" y="17.0" width="11" height="11" rx="2" fill="#161b22"/>
<rect x="59.0" y="17.0" width="11" height="11" rx="2" fill="#161b22"/>
<rect x="73.0" y="17.0" width="11" height="11" rx="2" fill="#161b22"/>
<rect x="87.0" y="17.0" width="11" height="11" rx="2" fill="#161b22"/>
<rect x="101.0" y="17.0" width="11" height="11" rx="2" fill="#161b22"/>
<rect x="115.0" y="17.0" width="11" height="11" rx="2" fill="#161b22"/>
<rect x="129.0" y="17.0" width="11" height="11" rx="2" fill="#161b22"/>
<rect x="143.0" y="17.0" width="11" height="11" rx="2" fill="#161b22"/>
<rect x="157.0" y="17.0" width="11" height="11" rx="2" fill="#161b22"/>
<rect x="171.0" y="17.0" width="11" height="11" rx="2" fill="#161b22"/>
<rect x="185.0" y="17.0" width="11" height="11" rx="2" fill="#161b22"/>
<rect x="199.0" y="17.0" width="11" height="11" rx="2" fill="#161b22"/>
<rect x="213.0" y="17.0" width="11" height="11" rx="2" fill="#161b22"/>
<rect x="227.0" y="17.0" width="11" height="11" rx="2" fill="#161b22"/>
<rect x="241.0" y="17.0" width="11" height="11" rx="2" fill="#161b22"/>
<rect x="255.0" y="17.0" width="11" height="11" rx="2" fill="#161b22"/>
<rect x="269.0" y="17.0" width="11" height="11" rx="2" fill="#161b22"/>
<rect x="283.0" y="17.0" width="11" height="11" rx="2" fill="#161b22"/>
<rect x="297.0" y="17.0" width="11" height="11" rx="2" fill="#161b22"/>
<rect x="311.0" y="17.0" width="11" height="11" rx="2" fill="#161b22"/>
<rect x="325.0" y="17.0" width="11" height="11" rx="2" fill="#161b22"/>
<rect x="339.0" y="17.0" width="11" height="11" rx="2" fill="#3d3d3d"/>
<rect x="353.0" y="17.0" width="11" height="11" rx="2" fill="#161b22"/>
<rect x="367.0" y="17.0" width="11" height="11" rx="2" fill="#161b22"/>
<rect x="381.0" y="17.0" width="11" height="11" rx="2" fill="#161b22"/>
<rect x="395.0" y="17.0" width="11" height="11" rx="2" fill="#161b22"/>
<rect x="409.0" y="17.0" width="11" height="11" rx="2" fill="#161b22"/>
<rect x="423.0" y="17.0" width="11" height="11" rx="2" fill="#161b22"/>
<rect x="437.0" y="17.0" width="11" height="11" rx="2" fill="#161b22"/>
<rect x="451.0" y="17.0" width="11" height="11" rx="2" fill="#161b22"/>
<rect x="465.0" y="17.0" width="11" height="11" rx="2" fill="#161b22"/>
<rect x="479.0" y="17.0" width="11" height="11" rx="2" fill="#161b22"/>
<rect x="493.0" y="17.0" width="11" height="11" rx="2" fill="#161b22"/>
<rect x="507.0" y="17.0" width="11" height="11" rx="2" fill="#161b22"/>
<rect x="521.0" y="17.0" width="11" height="11" rx="2" fill="#161b22"/>
<rect x="535.0" y="17.0" width="11" height="11" rx="2" fill="#161b22"/>
<rect x="549.0" y="17.0" width="11" height="11" rx="2" fill="#161b22"/>
<rect x="563.0" y="17.0" width="11" height="11" rx="2" fill="#161b22"/>
<rect x="577.0" y="17.0" width="11" height="11" rx="2" fill="#161b22"/>
<rect x="591.0" y="17.0" width="11" height="11" rx="2" fill="#161b22"/>
<rect x="605.0" y="17.0" width="11" height="11" rx="2" fill="#161b22"/>
<rect x="619.0" y="17.0" width="11" height="11" rx="2" fill="#161b22"/>
<rect x="633.0" y="17.0" width="11" height="11" rx="2" fill="#161b22"/>
<rect x="647.0" y="17.0" width="11" height="11" rx="2" fill="#161b22"/>
<rect x="661.0" y="17.0" width="11" height="11" rx="2" fill="#161b22"/>
<rect x="675.0" y="17.0" width="11" height="11" rx="2" fill="#161b22"/>
<rect x="689.0" y="17.0" width="11" height="11" rx="2" fill="#161b22"/>
<rect x="703.0" y="17.0" width="11" height="11" rx="2" fill="#161b22"/>
<rect x="717.0" y="17.0" width="11" height="11" rx="2" fill="#161b22"/>
<rect x="731.0" y="17.0" width="11" height="11" rx="2" fill="#161b22"/>
<rect x="3.0" y="31.0" width="11" height="11" rx="2" fill="#161b22"/>
<rect x="17.0" y="31.0" width="11" height="11" rx="2" fill="#161b22"/>
<rect x="31.0" y="31.0" width="11" height="11" rx="2" fill="#161b22"/>
<rect x="45.0" y="31.0" width="11" height="11" rx="2" fill="#161b22"/>
<rect x="59.0" y="31.0" width="11" height="11" rx="2" fill="#161b22"/>
<rect x="73.0" y="31.0" width="11" height="11" rx="2" fill="#161b22"/>
<rect x="87.0" y="31.0" width="11" height="11" rx="2" fill="#161b22"/>
<rect x="101.0" y="31.0" width="11" height="11" rx="2" fill="#161b22"/>
<rect x="115.0" y="31.0" width="11" height="11" rx="2" fill="#161b22"/>
<rect x="129.0" y="31.0" width="11" height="11" rx="2" fill="#161b22"/>
<rect x="143.0" y="31.0" width="11" height="11" rx="2" fill="#161b22"/>
<rect x="157.0" y="31.0" width="11" height="11" rx="2" fill="#161b22"/>
<rect x="171.0" y="31.0" width="11" height="11" rx="2" fill="#161b22"/>
<rect x="185.0" y="31.0" width="11" height="11" rx="2" fill="#161b22"/>
<rect x="199.0" y="31.0" width="11" height="11" rx="2" fill="#161b22"/>
<rect x="213.0" y="31.0" width="11" height="11" rx="2" fill="#161b22"/>
<rect x="227.0" y="31.0" width="11" height="11" rx="2" fill="#161b22"/>
<rect x="241.0" y="31.0" width="11" height="11" rx="2" fill="#161b22"/>
<rect x="255.0" y="31.0" width="11" height="11" rx="2" fill="#161b22"/>
<rect x="269.0" y="31.0" width="11" height="11" rx="2" fill="#161b22"/>
<rect x="283.0" y="31.0" width="11" height="11" rx="2" fill="#161b22"/>
<rect x="297.0" y="31.0" width="11" height="11" rx="2" fill="#161b22"/>
<rect x="311.0" y="31.0" width="11" height="11" rx="2" fill="#161b22"/>
<rect x="325.0" y="31.0" width="11" height="11" rx="2" fill="#e6e6e6"><animate attributeName="x" values="325.0;325.0;325.0;325.0;779.5;779.5;779.5;779.5" keyTimes="0.0;0.55333;0.57;0.58333;0.61333;0.63333;0.64667;1.0" dur="19.200000000000003s" repeatCount="indefinite" calcMode="linear"/><animate attributeName="y" values="31.0;31.0;31.0;-35.5;-35.5;45.0;45.0;45.0" keyTimes="0.0;0.55333;0.57;0.58333;0.61333;0.63333;0.64667;1.0" dur="19.200000000000003s" repeatCount="indefinite" calcMode="linear"/><animate attributeName="opacity" values="1;1;1;1;1;1;0;0" keyTimes="0.0;0.55333;0.57;0.58333;0.61333;0.63333;0.64667;1.0" dur="19.200000000000003s" repeatCount="indefinite" calcMode="linear"/></rect>
<rect x="339.0" y="31.0" width="11" height="11" rx="2" fill="#161b22"/>
<rect x="353.0" y="31.0" width="11" height="11" rx="2" fill="#161b22"/>
<rect x="367.0" y="31.0" width="11" height="11" rx="2" fill="#161b22"/>
<rect x="381.0" y="31.0" width="11" height="11" rx="2" fill="#161b22"/>
<rect x="395.0" y="31.0" width="11" height="11" rx="2" fill="#161b22"/>
<rect x="409.0" y="31.0" width="11" height="11" rx="2" fill="#161b22"/>
<rect x="423.0" y="31.0" width="11" height="11" rx="2" fill="#161b22"/>
<rect x="437.0" y="31.0" width="11" height="11" rx="2" fill="#161b22"/>
<rect x="451.0" y="31.0" width="11" height="11" rx="2" fill="#161b22"/>
<rect x="465.0" y="31.0" width="11" height="11" rx="2" fill="#161b22"/>
<rect x="479.0" y="31.0" width="11" height="11" rx="2" fill="#161b22"/>
<rect x="493.0" y="31.0" width="11" height="11" rx="2" fill="#161b22"/>
<rect x="507.0" y="31.0" width="11" height="11" rx="2" fill="#161b22"/>
<rect x="521.0" y="31.0" width="11" height="11" rx="2" fill="#161b22"/>
<rect x="535.0" y="31.0" width="11" height="11" rx="2" fill="#161b22"/>
<rect x="549.0" y="31.0" width="11" height="11" rx="2" fill="#161b22"/>
<rect x="563.0" y="31.0" width="11" height="11" rx="2" fill="#161b22"/>
<rect x="577.0" y="31.0" width="11" height="11" rx="2" fill="#161b22"/>
<rect x="591.0" y="31.0" width="11" height="11" rx="2" fill="#161b22"/>
<rect x="605.0" y="31.0" width="11" height="11" rx="2" fill="#161b22"/>
<rect x="619.0" y="31.0" width="11" height="11" rx="2" fill="#161b22"/>
<rect x="633.0" y="31.0" width="11" height="11" rx="2" fill="#161b22"/>
<rect x="647.0" y="31.0" width="11" height="11" rx="2" fill="#161b22"/>
<rect x="661.0" y="31.0" width="11" height="11" rx="2" fill="#161b22"/>
<rect x="675.0" y="31.0" width="11" height="11" rx="2" fill="#3d3d3d"/>
<rect x="689.0" y="31.0" width="11" height="11" rx="2" fill="#161b22"/>
<rect x="703.0" y="31.0" width="11" height="11" rx="2" fill="#6e6e6e"/>
<rect x="717.0" y="31.0" width="11" height="11" rx="2" fill="#161b22"/>
<rect x="731.0" y="31.0" width="11" height="11" rx="2" fill="#161b22"/>
<rect x="3.0" y="45.0" width="11" height="11" rx="2" fill="#161b22"/>
<rect x="17.0" y="45.0" width="11" height="11" rx="2" fill="#161b22"/>
<rect x="31.0" y="45.0" width="11" height="11" rx="2" fill="#161b22"/>
<rect x="45.0" y="45.0" width="11" height="11" rx="2" fill="#161b22"/>
<rect x="59.0" y="45.0" width="11" height="11" rx="2" fill="#161b22"/>
<rect x="73.0" y="45.0" width="11" height="11" rx="2" fill="#161b22"/>
<rect x="87.0" y="45.0" width="11" height="11" rx="2" fill="#161b22"/>
<rect x="101.0" y="45.0" width="11" height="11" rx="2" fill="#161b22"/>
<rect x="115.0" y="45.0" width="11" height="11" rx="2" fill="#161b22"/>
<rect x="129.0" y="45.0" width="11" height="11" rx="2" fill="#161b22"/>
<rect x="143.0" y="45.0" width="11" height="11" rx="2" fill="#161b22"/>
<rect x="157.0" y="45.0" width="11" height="11" rx="2" fill="#161b22"/>
<rect x="171.0" y="45.0" width="11" height="11" rx="2" fill="#161b22"/>
<rect x="185.0" y="45.0" width="11" height="11" rx="2" fill="#161b22"/>
<rect x="199.0" y="45.0" width="11" height="11" rx="2" fill="#161b22"/>
<rect x="213.0" y="45.0" width="11" height="11" rx="2" fill="#161b22"/>
<rect x="227.0" y="45.0" width="11" height="11" rx="2" fill="#161b22"/>
<rect x="241.0" y="45.0" width="11" height="11" rx="2" fill="#161b22"/>
<rect x="255.0" y="45.0" width="11" height="11" rx="2" fill="#161b22"/>
<rect x="269.0" y="45.0" width="11" height="11" rx="2" fill="#161b22"/>
<rect x="283.0" y="45.0" width="11" height="11" rx="2" fill="#6e6e6e"><animate attributeName="x" values="283.0;283.0;283.0;283.0;779.5;779.5;779.5;779.5" keyTimes="0.0;0.22;0.23667;0.25;0.28;0.3;0.31333;1.0" dur="19.200000000000003s" repeatCount="indefinite" calcMode="linear"/><animate attributeName="y" values="45.0;45.0;45.0;-35.5;-35.5;45.0;45.0;45.0" keyTimes="0.0;0.22;0.23667;0.25;0.28;0.3;0.31333;1.0" dur="19.200000000000003s" repeatCount="indefinite" calcMode="linear"/><animate attributeName="opacity" values="1;1;1;1;1;1;0;0" keyTimes="0.0;0.22;0.23667;0.25;0.28;0.3;0.31333;1.0" dur="19.200000000000003s" repeatCount="indefinite" calcMode="linear"/></rect>
<rect x="297.0" y="45.0" width="11" height="11" rx="2" fill="#161b22"/>
<rect x="311.0" y="45.0" width="11" height="11" rx="2" fill="#161b22"/>
<rect x="325.0" y="45.0" width="11" height="11" rx="2" fill="#a3a3a3"/>
<rect x="339.0" y="45.0" width="11" height="11" rx="2" fill="#161b22"/>
<rect x="353.0" y="45.0" width="11" height="11" rx="2" fill="#161b22"/>
<rect x="367.0" y="45.0" width="11" height="11" rx="2" fill="#161b22"/>
<rect x="381.0" y="45.0" width="11" height="11" rx="2" fill="#161b22"/>
<rect x="395.0" y="45.0" width="11" height="11" rx="2" fill="#161b22"/>
<rect x="409.0" y="45.0" width="11" height="11" rx="2" fill="#161b22"/>
<rect x="423.0" y="45.0" width="11" height="11" rx="2" fill="#161b22"/>
<rect x="437.0" y="45.0" width="11" height="11" rx="2" fill="#161b22"/>
<rect x="451.0" y="45.0" width="11" height="11" rx="2" fill="#161b22"/>
<rect x="465.0" y="45.0" width="11" height="11" rx="2" fill="#161b22"/>
<rect x="479.0" y="45.0" width="11" height="11" rx="2" fill="#161b22"/>
<rect x="493.0" y="45.0" width="11" height="11" rx="2" fill="#161b22"/>
<rect x="507.0" y="45.0" width="11" height="11" rx="2" fill="#161b22"/>
<rect x="521.0" y="45.0" width="11" height="11" rx="2" fill="#161b22"/>
<rect x="535.0" y="45.0" width="11" height="11" rx="2" fill="#161b22"/>
<rect x="549.0" y="45.0" width="11" height="11" rx="2" fill="#161b22"/>
<rect x="563.0" y="45.0" width="11" height="11" rx="2" fill="#161b22"/>
<rect x="577.0" y="45.0" width="11" height="11" rx="2" fill="#161b22"/>
<rect x="591.0" y="45.0" width="11" height="11" rx="2" fill="#161b22"/>
<rect x="605.0" y="45.0" width="11" height="11" rx="2" fill="#161b22"/>
<rect x="619.0" y="45.0" width="11" height="11" rx="2" fill="#161b22"/>
<rect x="633.0" y="45.0" width="11" height="11" rx="2" fill="#161b22"/>
<rect x="647.0" y="45.0" width="11" height="11" rx="2" fill="#161b22"/>
<rect x="661.0" y="45.0" width="11" height="11" rx="2" fill="#6e6e6e"/>
<rect x="675.0" y="45.0" width="11" height="11" rx="2" fill="#3d3d3d"/>
<rect x="689.0" y="45.0" width="11" height="11" rx="2" fill="#161b22"/>
<rect x="703.0" y="45.0" width="11" height="11" rx="2" fill="#3d3d3d"/>
<rect x="717.0" y="45.0" width="11" height="11" rx="2" fill="#161b22"/>
<rect x="731.0" y="45.0" width="11" height="11" rx="2" fill="#161b22"/>
<rect x="3.0" y="59.0" width="11" height="11" rx="2" fill="#161b22"/>
<rect x="17.0" y="59.0" width="11" height="11" rx="2" fill="#161b22"/>
<rect x="31.0" y="59.0" width="11" height="11" rx="2" fill="#161b22"/>
<rect x="45.0" y="59.0" width="11" height="11" rx="2" fill="#161b22"/>
<rect x="59.0" y="59.0" width="11" height="11" rx="2" fill="#161b22"/>
<rect x="73.0" y="59.0" width="11" height="11" rx="2" fill="#161b22"/>
<rect x="87.0" y="59.0" width="11" height="11" rx="2" fill="#161b22"/>
<rect x="101.0" y="59.0" width="11" height="11" rx="2" fill="#161b22"/>
<rect x="115.0" y="59.0" width="11" height="11" rx="2" fill="#161b22"/>
<rect x="129.0" y="59.0" width="11" height="11" rx="2" fill="#161b22"/>
<rect x="143.0" y="59.0" width="11" height="11" rx="2" fill="#161b22"/>
<rect x="157.0" y="59.0" width="11" height="11" rx="2" fill="#161b22"/>
<rect x="171.0" y="59.0" width="11" height="11" rx="2" fill="#161b22"/>
<rect x="185.0" y="59.0" width="11" height="11" rx="2" fill="#161b22"/>
<rect x="199.0" y="59.0" width="11" height="11" rx="2" fill="#161b22"/>
<rect x="213.0" y="59.0" width="11" height="11" rx="2" fill="#161b22"/>
<rect x="227.0" y="59.0" width="11" height="11" rx="2" fill="#161b22"/>
<rect x="241.0" y="59.0" width="11" height="11" rx="2" fill="#161b22"/>
<rect x="255.0" y="59.0" width="11" height="11" rx="2" fill="#161b22"/>
<rect x="269.0" y="59.0" width="11" height="11" rx="2" fill="#161b22"/>
<rect x="283.0" y="59.0" width="11" height="11" rx="2" fill="#6e6e6e"/>
<rect x="297.0" y="59.0" width="11" height="11" rx="2" fill="#161b22"/>
<rect x="311.0" y="59.0" width="11" height="11" rx="2" fill="#e6e6e6"/>
<rect x="325.0" y="59.0" width="11" height="11" rx="2" fill="#161b22"/>
<rect x="339.0" y="59.0" width="11" height="11" rx="2" fill="#161b22"/>
<rect x="353.0" y="59.0" width="11" height="11" rx="2" fill="#a3a3a3"/>
<rect x="367.0" y="59.0" width="11" height="11" rx="2" fill="#161b22"/>
<rect x="381.0" y="59.0" width="11" height="11" rx="2" fill="#161b22"/>
<rect x="395.0" y="59.0" width="11" height="11" rx="2" fill="#161b22"/>
<rect x="409.0" y="59.0" width="11" height="11" rx="2" fill="#161b22"/>
<rect x="423.0" y="59.0" width="11" height="11" rx="2" fill="#161b22"/>
<rect x="437.0" y="59.0" width="11" height="11" rx="2" fill="#161b22"/>
<rect x="451.0" y="59.0" width="11" height="11" rx="2" fill="#161b22"/>
<rect x="465.0" y="59.0" width="11" height="11" rx="2" fill="#161b22"/>
<rect x="479.0" y="59.0" width="11" height="11" rx="2" fill="#161b22"/>
<rect x="493.0" y="59.0" width="11" height="11" rx="2" fill="#161b22"/>
<rect x="507.0" y="59.0" width="11" height="11" rx="2" fill="#161b22"/>
<rect x="521.0" y="59.0" width="11" height="11" rx="2" fill="#161b22"/>
<rect x="535.0" y="59.0" width="11" height="11" rx="2" fill="#161b22"/>
<rect x="549.0" y="59.0" width="11" height="11" rx="2" fill="#161b22"/>
<rect x="563.0" y="59.0" width="11" height="11" rx="2" fill="#161b22"/>
<rect x="577.0" y="59.0" width="11" height="11" rx="2" fill="#161b22"/>
<rect x="591.0" y="59.0" width="11" height="11" rx="2" fill="#161b22"/>
<rect x="605.0" y="59.0" width="11" height="11" rx="2" fill="#161b22"/>
<rect x="619.0" y="59.0" width="11" height="11" rx="2" fill="#161b22"/>
<rect x="633.0" y="59.0" width="11" height="11" rx="2" fill="#161b22"/>
<rect x="647.0" y="59.0" width="11" height="11" rx="2" fill="#161b22"/>
<rect x="661.0" y="59.0" width="11" height="11" rx="2" fill="#6e6e6e"/>
<rect x="675.0" y="59.0" width="11" height="11" rx="2" fill="#161b22"/>
<rect x="689.0" y="59.0" width="11" height="11" rx="2" fill="#161b22"/>
<rect x="703.0" y="59.0" width="11" height="11" rx="2" fill="#161b22"/>
<rect x="717.0" y="59.0" width="11" height="11" rx="2" fill="#161b22"/>
<rect x="731.0" y="59.0" width="11" height="11" rx="2" fill="#161b22"/>
<rect x="3.0" y="73.0" width="11" height="11" rx="2" fill="#161b22"/>
<rect x="17.0" y="73.0" width="11" height="11" rx="2" fill="#161b22"/>
<rect x="31.0" y="73.0" width="11" height="11" rx="2" fill="#161b22"/>
<rect x="45.0" y="73.0" width="11" height="11" rx="2" fill="#161b22"/>
<rect x="59.0" y="73.0" width="11" height="11" rx="2" fill="#161b22"/>
<rect x="73.0" y="73.0" width="11" height="11" rx="2" fill="#161b22"/>
<rect x="87.0" y="73.0" width="11" height="11" rx="2" fill="#161b22"/>
<rect x="101.0" y="73.0" width="11" height="11" rx="2" fill="#161b22"/>
<rect x="115.0" y="73.0" width="11" height="11" rx="2" fill="#161b22"/>
<rect x="129.0" y="73.0" width="11" height="11" rx="2" fill="#161b22"/>
<rect x="143.0" y="73.0" width="11" height="11" rx="2" fill="#161b22"/>
<rect x="157.0" y="73.0" width="11" height="11" rx="2" fill="#161b22"/>
<rect x="171.0" y="73.0" width="11" height="11" rx="2" fill="#161b22"/>
<rect x="185.0" y="73.0" width="11" height="11" rx="2" fill="#161b22"/>
<rect x="199.0" y="73.0" width="11" height="11" rx="2" fill="#161b22"/>
<rect x="213.0" y="73.0" width="11" height="11" rx="2" fill="#161b22"/>
<rect x="227.0" y="73.0" width="11" height="11" rx="2" fill="#161b22"/>
<rect x="241.0" y="73.0" width="11" height="11" rx="2" fill="#161b22"/>
<rect x="255.0" y="73.0" width="11" height="11" rx="2" fill="#161b22"/>
<rect x="269.0" y="73.0" width="11" height="11" rx="2" fill="#6e6e6e"/>
<rect x="283.0" y="73.0" width="11" height="11" rx="2" fill="#e6e6e6"><animate attributeName="x" values="283.0;283.0;283.0;283.0;779.5;779.5;779.5;779.5" keyTimes="0.0;0.05333;0.07;0.08333;0.11333;0.13333;0.14667;1.0" dur="19.200000000000003s" repeatCount="indefinite" calcMode="linear"/><animate attributeName="y" values="73.0;73.0;73.0;-35.5;-35.5;45.0;45.0;45.0" keyTimes="0.0;0.05333;0.07;0.08333;0.11333;0.13333;0.14667;1.0" dur="19.200000000000003s" repeatCount="indefinite" calcMode="linear"/><animate attributeName="opacity" values="1;1;1;1;1;1;0;0" keyTimes="0.0;0.05333;0.07;0.08333;0.11333;0.13333;0.14667;1.0" dur="19.200000000000003s" repeatCount="indefinite" calcMode="linear"/></rect>
<rect x="297.0" y="73.0" width="11" height="11" rx="2" fill="#161b22"/>
<rect x="311.0" y="73.0" width="11" height="11" rx="2" fill="#a3a3a3"><animate attributeName="x" values="311.0;311.0;311.0;311.0;779.5;779.5;779.5;779.5" keyTimes="0.0;0.38667;0.40333;0.41667;0.44667;0.46667;0.48;1.0" dur="19.200000000000003s" repeatCount="indefinite" calcMode="linear"/><animate attributeName="y" values="73.0;73.0;73.0;-35.5;-35.5;45.0;45.0;45.0" keyTimes="0.0;0.38667;0.40333;0.41667;0.44667;0.46667;0.48;1.0" dur="19.200000000000003s" repeatCount="indefinite" calcMode="linear"/><animate attributeName="opacity" values="1;1;1;1;1;1;0;0" keyTimes="0.0;0.38667;0.40333;0.41667;0.44667;0.46667;0.48;1.0" dur="19.200000000000003s" repeatCount="indefinite" calcMode="linear"/></rect>
<rect x="325.0" y="73.0" width="11" height="11" rx="2" fill="#3d3d3d"/>
<rect x="339.0" y="73.0" width="11" height="11" rx="2" fill="#3d3d3d"/>
<rect x="353.0" y="73.0" width="11" height="11" rx="2" fill="#161b22"/>
<rect x="367.0" y="73.0" width="11" height="11" rx="2" fill="#161b22"/>
<rect x="381.0" y="73.0" width="11" height="11" rx="2" fill="#161b22"/>
<rect x="395.0" y="73.0" width="11" height="11" rx="2" fill="#161b22"/>
<rect x="409.0" y="73.0" width="11" height="11" rx="2" fill="#161b22"/>
<rect x="423.0" y="73.0" width="11" height="11" rx="2" fill="#161b22"/>
<rect x="437.0" y="73.0" width="11" height="11" rx="2" fill="#161b22"/>
<rect x="451.0" y="73.0" width="11" height="11" rx="2" fill="#161b22"/>
<rect x="465.0" y="73.0" width="11" height="11" rx="2" fill="#161b22"/>
<rect x="479.0" y="73.0" width="11" height="11" rx="2" fill="#3d3d3d"/>
<rect x="493.0" y="73.0" width="11" height="11" rx="2" fill="#161b22"/>
<rect x="507.0" y="73.0" width="11" height="11" rx="2" fill="#161b22"/>
<rect x="521.0" y="73.0" width="11" height="11" rx="2" fill="#161b22"/>
<rect x="535.0" y="73.0" width="11" height="11" rx="2" fill="#161b22"/>
<rect x="549.0" y="73.0" width="11" height="11" rx="2" fill="#161b22"/>
<rect x="563.0" y="73.0" width="11" height="11" rx="2" fill="#161b22"/>
<rect x="577.0" y="73.0" width="11" height="11" rx="2" fill="#161b22"/>
<rect x="591.0" y="73.0" width="11" height="11" rx="2" fill="#161b22"/>
<rect x="605.0" y="73.0" width="11" height="11" rx="2" fill="#161b22"/>
<rect x="619.0" y="73.0" width="11" height="11" rx="2" fill="#161b22"/>
<rect x="633.0" y="73.0" width="11" height="11" rx="2" fill="#161b22"/>
<rect x="647.0" y="73.0" width="11" height="11" rx="2" fill="#161b22"/>
<rect x="661.0" y="73.0" width="11" height="11" rx="2" fill="#161b22"/>
<rect x="675.0" y="73.0" width="11" height="11" rx="2" fill="#161b22"/>
<rect x="689.0" y="73.0" width="11" height="11" rx="2" fill="#161b22"/>
<rect x="703.0" y="73.0" width="11" height="11" rx="2" fill="#161b22"/>
<rect x="717.0" y="73.0" width="11" height="11" rx="2" fill="#161b22"/>
<rect x="731.0" y="73.0" width="11" height="11" rx="2" fill="#161b22"/>
<rect x="3.0" y="87.0" width="11" height="11" rx="2" fill="#161b22"/>
<rect x="17.0" y="87.0" width="11" height="11" rx="2" fill="#161b22"/>
<rect x="31.0" y="87.0" width="11" height="11" rx="2" fill="#161b22"/>
<rect x="45.0" y="87.0" width="11" height="11" rx="2" fill="#161b22"/>
<rect x="59.0" y="87.0" width="11" height="11" rx="2" fill="#161b22"/>
<rect x="73.0" y="87.0" width="11" height="11" rx="2" fill="#161b22"/>
<rect x="87.0" y="87.0" width="11" height="11" rx="2" fill="#161b22"/>
<rect x="101.0" y="87.0" width="11" height="11" rx="2" fill="#161b22"/>
<rect x="115.0" y="87.0" width="11" height="11" rx="2" fill="#161b22"/>
<rect x="129.0" y="87.0" width="11" height="11" rx="2" fill="#161b22"/>
<rect x="143.0" y="87.0" width="11" height="11" rx="2" fill="#161b22"/>
<rect x="157.0" y="87.0" width="11" height="11" rx="2" fill="#161b22"/>
<rect x="171.0" y="87.0" width="11" height="11" rx="2" fill="#161b22"/>
<rect x="185.0" y="87.0" width="11" height="11" rx="2" fill="#161b22"/>
<rect x="199.0" y="87.0" width="11" height="11" rx="2" fill="#161b22"/>
<rect x="213.0" y="87.0" width="11" height="11" rx="2" fill="#161b22"/>
<rect x="227.0" y="87.0" width="11" height="11" rx="2" fill="#161b22"/>
<rect x="241.0" y="87.0" width="11" height="11" rx="2" fill="#161b22"/>
<rect x="255.0" y="87.0" width="11" height="11" rx="2" fill="#161b22"/>
<rect x="269.0" y="87.0" width="11" height="11" rx="2" fill="#161b22"/>
<rect x="283.0" y="87.0" width="11" height="11" rx="2" fill="#161b22"/>
<rect x="297.0" y="87.0" width="11" height="11" rx="2" fill="#161b22"/>
<rect x="311.0" y="87.0" width="11" height="11" rx="2" fill="#a3a3a3"/>
<rect x="325.0" y="87.0" width="11" height="11" rx="2" fill="#161b22"/>
<rect x="339.0" y="87.0" width="11" height="11" rx="2" fill="#161b22"/>
<rect x="353.0" y="87.0" width="11" height="11" rx="2" fill="#161b22"/>
<rect x="367.0" y="87.0" width="11" height="11" rx="2" fill="#161b22"/>
<rect x="381.0" y="87.0" width="11" height="11" rx="2" fill="#161b22"/>
<rect x="395.0" y="87.0" width="11" height="11" rx="2" fill="#161b22"/>
<rect x="409.0" y="87.0" width="11" height="11" rx="2" fill="#161b22"/>
<rect x="423.0" y="87.0" width="11" height="11" rx="2" fill="#161b22"/>
<rect x="437.0" y="87.0" width="11" height="11" rx="2" fill="#161b22"/>
<rect x="451.0" y="87.0" width="11" height="11" rx="2" fill="#161b22"/>
<rect x="465.0" y="87.0" width="11" height="11" rx="2" fill="#161b22"/>
<rect x="479.0" y="87.0" width="11" height="11" rx="2" fill="#a3a3a3"/>
<rect x="493.0" y="87.0" width="11" height="11" rx="2" fill="#161b22"/>
<rect x="507.0" y="87.0" width="11" height="11" rx="2" fill="#161b22"/>
<rect x="521.0" y="87.0" width="11" height="11" rx="2" fill="#161b22"/>
<rect x="535.0" y="87.0" width="11" height="11" rx="2" fill="#161b22"/>
<rect x="549.0" y="87.0" width="11" height="11" rx="2" fill="#161b22"/>
<rect x="563.0" y="87.0" width="11" height="11" rx="2" fill="#161b22"/>
<rect x="577.0" y="87.0" width="11" height="11" rx="2" fill="#161b22"/>
<rect x="591.0" y="87.0" width="11" height="11" rx="2" fill="#161b22"/>
<rect x="605.0" y="87.0" width="11" height="11" rx="2" fill="#161b22"/>
<rect x="619.0" y="87.0" width="11" height="11" rx="2" fill="#161b22"/>
<rect x="633.0" y="87.0" width="11" height="11" rx="2" fill="#161b22"/>
<rect x="647.0" y="87.0" width="11" height="11" rx="2" fill="#161b22"/>
<rect x="661.0" y="87.0" width="11" height="11" rx="2" fill="#161b22"/>
<rect x="675.0" y="87.0" width="11" height="11" rx="2" fill="#161b22"/>
<rect x="689.0" y="87.0" width="11" height="11" rx="2" fill="#161b22"/>
<rect x="703.0" y="87.0" width="11" height="11" rx="2" fill="#161b22"/>
<rect x="717.0" y="87.0" width="11" height="11" rx="2" fill="#161b22"/>
<rect x="731.0" y="87.0" width="11" height="11" rx="2" fill="#161b22"/>
<g stroke="#7d8590" stroke-width="2" fill="none"><path d="M 771 50.5 L 774 66.5 L 796 66.5 L 799 50.5 Z"/><line x1="769" y1="47.5" x2="801" y2="47.5"/></g>
<line x1="0" y1="-40" x2="745" y2="-40" stroke="#30363d" stroke-width="2" stroke-dasharray="4 3"/>
<line x1="785.0" x2="785.0" y1="-40" y2="50.5" stroke="#7d8590" stroke-width="2"><animate attributeName="x1" values="785.0;288.5;288.5;288.5;288.5;785.0;785.0;785.0;785.0;785.0;288.5;288.5;288.5;288.5;785.0;785.0;785.0;785.0;785.0;316.5;316.5;316.5;316.5;785.0;785.0;785.0;785.0;785.0;330.5;330.5;330.5;330.5;785.0;785.0;785.0;785.0;785.0;358.5;358.5;358.5;358.5;785.0;785.0;785.0;785.0;785.0;680.5;680.5;680.5;680.5;785.0;785.0;785.0;785.0" keyTimes="0.0;0.03;0.05333;0.07;0.08333;0.11333;0.13333;0.14667;0.16667;0.16667;0.19667;0.22;0.23667;0.25;0.28;0.3;0.31333;0.33333;0.33333;0.36333;0.38667;0.40333;0.41667;0.44667;0.46667;0.48;0.5;0.5;0.53;0.55333;0.57;0.58333;0.61333;0.63333;0.64667;0.66667;0.66667;0.69667;0.72;0.73667;0.75;0.78;0.8;0.81333;0.83333;0.83333;0.86333;0.88667;0.90333;0.91667;0.94667;0.96667;0.98;1.0" dur="19.200000000000003s" repeatCount="indefinite" calcMode="linear"/><animate attributeName="x2" values="785.0;288.5;288.5;288.5;288.5;785.0;785.0;785.0;785.0;785.0;288.5;288.5;288.5;288.5;785.0;785.0;785.0;785.0;785.0;316.5;316.5;316.5;316.5;785.0;785.0;785.0;785.0;785.0;330.5;330.5;330.5;330.5;785.0;785.0;785.0;785.0;785.0;358.5;358.5;358.5;358.5;785.0;785.0;785.0;785.0;785.0;680.5;680.5;680.5;680.5;785.0;785.0;785.0;785.0" keyTimes="0.0;0.03;0.05333;0.07;0.08333;0.11333;0.13333;0.14667;0.16667;0.16667;0.19667;0.22;0.23667;0.25;0.28;0.3;0.31333;0.33333;0.33333;0.36333;0.38667;0.40333;0.41667;0.44667;0.46667;0.48;0.5;0.5;0.53;0.55333;0.57;0.58333;0.61333;0.63333;0.64667;0.66667;0.66667;0.69667;0.72;0.73667;0.75;0.78;0.8;0.81333;0.83333;0.83333;0.86333;0.88667;0.90333;0.91667;0.94667;0.96667;0.98;1.0" dur="19.200000000000003s" repeatCount="indefinite" calcMode="linear"/><animate attributeName="y2" values="50.5;-30.0;78.5;78.5;-30.0;-30.0;50.5;50.5;50.5;50.5;-30.0;50.5;50.5;-30.0;-30.0;50.5;50.5;50.5;50.5;-30.0;78.5;78.5;-30.0;-30.0;50.5;50.5;50.5;50.5;-30.0;36.5;36.5;-30.0;-30.0;50.5;50.5;50.5;50.5;-30.0;8.5;8.5;-30.0;-30.0;50.5;50.5;50.5;50.5;-30.0;8.5;8.5;-30.0;-30.0;50.5;50.5;50.5" keyTimes="0.0;0.03;0.05333;0.07;0.08333;0.11333;0.13333;0.14667;0.16667;0.16667;0.19667;0.22;0.23667;0.25;0.28;0.3;0.31333;0.33333;0.33333;0.36333;0.38667;0.40333;0.41667;0.44667;0.46667;0.48;0.5;0.5;0.53;0.55333;0.57;0.58333;0.61333;0.63333;0.64667;0.66667;0.66667;0.69667;0.72;0.73667;0.75;0.78;0.8;0.81333;0.83333;0.83333;0.86333;0.88667;0.90333;0.91667;0.94667;0.96667;0.98;1.0" dur="19.200000000000003s" repeatCount="indefinite" calcMode="linear"/></line>
<polygon points="783.0,48.5 770.0,53.5 770.0,63.5 778.0,65.5" fill="#9ca3af"><animate attributeName="points" values="783.0,48.5 770.0,53.5 770.0,63.5 778.0,65.5;286.5,-32.0 273.5,-27.0 273.5,-17.0 281.5,-15.0;286.5,76.5 273.5,81.5 273.5,91.5 281.5,93.5;286.5,76.5 281.5,80.5 281.5,89.5 285.5,90.5;286.5,-32.0 281.5,-28.0 281.5,-19.0 285.5,-18.0;783.0,-32.0 778.0,-28.0 778.0,-19.0 782.0,-18.0;783.0,48.5 778.0,52.5 778.0,61.5 782.0,62.5;783.0,48.5 770.0,53.5 770.0,63.5 778.0,65.5;783.0,48.5 770.0,53.5 770.0,63.5 778.0,65.5;783.0,48.5 770.0,53.5 770.0,63.5 778.0,65.5;286.5,-32.0 273.5,-27.0 273.5,-17.0 281.5,-15.0;286.5,48.5 273.5,53.5 273.5,63.5 281.5,65.5;286.5,48.5 281.5,52.5 281.5,61.5 285.5,62.5;286.5,-32.0 281.5,-28.0 281.5,-19.0 285.5,-18.0;783.0,-32.0 778.0,-28.0 778.0,-19.0 782.0,-18.0;783.0,48.5 778.0,52.5 778.0,61.5 782.0,62.5;783.0,48.5 770.0,53.5 770.0,63.5 778.0,65.5;783.0,48.5 770.0,53.5 770.0,63.5 778.0,65.5;783.0,48.5 770.0,53.5 770.0,63.5 778.0,65.5;314.5,-32.0 301.5,-27.0 301.5,-17.0 309.5,-15.0;314.5,76.5 301.5,81.5 301.5,91.5 309.5,93.5;314.5,76.5 309.5,80.5 309.5,89.5 313.5,90.5;314.5,-32.0 309.5,-28.0 309.5,-19.0 313.5,-18.0;783.0,-32.0 778.0,-28.0 778.0,-19.0 782.0,-18.0;783.0,48.5 778.0,52.5 778.0,61.5 782.0,62.5;783.0,48.5 770.0,53.5 770.0,63.5 778.0,65.5;783.0,48.5 770.0,53.5 770.0,63.5 778.0,65.5;783.0,48.5 770.0,53.5 770.0,63.5 778.0,65.5;328.5,-32.0 315.5,-27.0 315.5,-17.0 323.5,-15.0;328.5,34.5 315.5,39.5 315.5,49.5 323.5,51.5;328.5,34.5 323.5,38.5 323.5,47.5 327.5,48.5;328.5,-32.0 323.5,-28.0 323.5,-19.0 327.5,-18.0;783.0,-32.0 778.0,-28.0 778.0,-19.0 782.0,-18.0;783.0,48.5 778.0,52.5 778.0,61.5 782.0,62.5;783.0,48.5 770.0,53.5 770.0,63.5 778.0,65.5;783.0,48.5 770.0,53.5 770.0,63.5 778.0,65.5;783.0,48.5 770.0,53.5 770.0,63.5 778.0,65.5;356.5,-32.0 343.5,-27.0 343.5,-17.0 351.5,-15.0;356.5,6.5 343.5,11.5 343.5,21.5 351.5,23.5;356.5,6.5 351.5,10.5 351.5,19.5 355.5,20.5;356.5,-32.0 351.5,-28.0 351.5,-19.0 355.5,-18.0;783.0,-32.0 778.0,-28.0 778.0,-19.0 782.0,-18.0;783.0,48.5 778.0,52.5 778.0,61.5 782.0,62.5;783.0,48.5 770.0,53.5 770.0,63.5 778.0,65.5;783.0,48.5 770.0,53.5 770.0,63.5 778.0,65.5;783.0,48.5 770.0,53.5 770.0,63.5 778.0,65.5;678.5,-32.0 665.5,-27.0 665.5,-17.0 673.5,-15.0;678.5,6.5 665.5,11.5 665.5,21.5 673.5,23.5;678.5,6.5 673.5,10.5 673.5,19.5 677.5,20.5;678.5,-32.0 673.5,-28.0 673.5,-19.0 677.5,-18.0;783.0,-32.0 778.0,-28.0 778.0,-19.0 782.0,-18.0;783.0,48.5 778.0,52.5 778.0,61.5 782.0,62.5;783.0,48.5 770.0,53.5 770.0,63.5 778.0,65.5;783.0,48.5 770.0,53.5 770.0,63.5 778.0,65.5" keyTimes="0.0;0.03;0.05333;0.07;0.08333;0.11333;0.13333;0.14667;0.16667;0.16667;0.19667;0.22;0.23667;0.25;0.28;0.3;0.31333;0.33333;0.33333;0.36333;0.38667;0.40333;0.41667;0.44667;0.46667;0.48;0.5;0.5;0.53;0.55333;0.57;0.58333;0.61333;0.63333;0.64667;0.66667;0.66667;0.69667;0.72;0.73667;0.75;0.78;0.8;0.81333;0.83333;0.83333;0.86333;0.88667;0.90333;0.91667;0.94667;0.96667;0.98;1.0" dur="19.200000000000003s" repeatCount="indefinite" calcMode="linear"/></polygon><polygon points="787.0,48.5 800.0,53.5 800.0,63.5 792.0,65.5" fill="#9ca3af"><animate attributeName="points" values="787.0,48.5 800.0,53.5 800.0,63.5 792.0,65.5;290.5,-32.0 303.5,-27.0 303.5,-17.0 295.5,-15.0;290.5,76.5 303.5,81.5 303.5,91.5 295.5,93.5;290.5,76.5 295.5,80.5 295.5,89.5 291.5,90.5;290.5,-32.0 295.5,-28.0 295.5,-19.0 291.5,-18.0;787.0,-32.0 792.0,-28.0 792.0,-19.0 788.0,-18.0;787.0,48.5 792.0,52.5 792.0,61.5 788.0,62.5;787.0,48.5 800.0,53.5 800.0,63.5 792.0,65.5;787.0,48.5 800.0,53.5 800.0,63.5 792.0,65.5;787.0,48.5 800.0,53.5 800.0,63.5 792.0,65.5;290.5,-32.0 303.5,-27.0 303.5,-17.0 295.5,-15.0;290.5,48.5 303.5,53.5 303.5,63.5 295.5,65.5;290.5,48.5 295.5,52.5 295.5,61.5 291.5,62.5;290.5,-32.0 295.5,-28.0 295.5,-19.0 291.5,-18.0;787.0,-32.0 792.0,-28.0 792.0,-19.0 788.0,-18.0;787.0,48.5 792.0,52.5 792.0,61.5 788.0,62.5;787.0,48.5 800.0,53.5 800.0,63.5 792.0,65.5;787.0,48.5 800.0,53.5 800.0,63.5 792.0,65.5;787.0,48.5 800.0,53.5 800.0,63.5 792.0,65.5;318.5,-32.0 331.5,-27.0 331.5,-17.0 323.5,-15.0;318.5,76.5 331.5,81.5 331.5,91.5 323.5,93.5;318.5,76.5 323.5,80.5 323.5,89.5 319.5,90.5;318.5,-32.0 323.5,-28.0 323.5,-19.0 319.5,-18.0;787.0,-32.0 792.0,-28.0 792.0,-19.0 788.0,-18.0;787.0,48.5 792.0,52.5 792.0,61.5 788.0,62.5;787.0,48.5 800.0,53.5 800.0,63.5 792.0,65.5;787.0,48.5 800.0,53.5 800.0,63.5 792.0,65.5;787.0,48.5 800.0,53.5 800.0,63.5 792.0,65.5;332.5,-32.0 345.5,-27.0 345.5,-17.0 337.5,-15.0;332.5,34.5 345.5,39.5 345.5,49.5 337.5,51.5;332.5,34.5 337.5,38.5 337.5,47.5 333.5,48.5;332.5,-32.0 337.5,-28.0 337.5,-19.0 333.5,-18.0;787.0,-32.0 792.0,-28.0 792.0,-19.0 788.0,-18.0;787.0,48.5 792.0,52.5 792.0,61.5 788.0,62.5;787.0,48.5 800.0,53.5 800.0,63.5 792.0,65.5;787.0,48.5 800.0,53.5 800.0,63.5 792.0,65.5;787.0,48.5 800.0,53.5 800.0,63.5 792.0,65.5;360.5,-32.0 373.5,-27.0 373.5,-17.0 365.5,-15.0;360.5,6.5 373.5,11.5 373.5,21.5 365.5,23.5;360.5,6.5 365.5,10.5 365.5,19.5 361.5,20.5;360.5,-32.0 365.5,-28.0 365.5,-19.0 361.5,-18.0;787.0,-32.0 792.0,-28.0 792.0,-19.0 788.0,-18.0;787.0,48.5 792.0,52.5 792.0,61.5 788.0,62.5;787.0,48.5 800.0,53.5 800.0,63.5 792.0,65.5;787.0,48.5 800.0,53.5 800.0,63.5 792.0,65.5;787.0,48.5 800.0,53.5 800.0,63.5 792.0,65.5;682.5,-32.0 695.5,-27.0 695.5,-17.0 687.5,-15.0;682.5,6.5 695.5,11.5 695.5,21.5 687.5,23.5;682.5,6.5 687.5,10.5 687.5,19.5 683.5,20.5;682.5,-32.0 687.5,-28.0 687.5,-19.0 683.5,-18.0;787.0,-32.0 792.0,-28.0 792.0,-19.0 788.0,-18.0;787.0,48.5 792.0,52.5 792.0,61.5 788.0,62.5;787.0,48.5 800.0,53.5 800.0,63.5 792.0,65.5;787.0,48.5 800.0,53.5 800.0,63.5 792.0,65.5" keyTimes="0.0;0.03;0.05333;0.07;0.08333;0.11333;0.13333;0.14667;0.16667;0.16667;0.19667;0.22;0.23667;0.25;0.28;0.3;0.31333;0.33333;0.33333;0.36333;0.38667;0.40333;0.41667;0.44667;0.46667;0.48;0.5;0.5;0.53;0.55333;0.57;0.58333;0.61333;0.63333;0.64667;0.66667;0.66667;0.69667;0.72;0.73667;0.75;0.78;0.8;0.81333;0.83333;0.83333;0.86333;0.88667;0.90333;0.91667;0.94667;0.96667;0.98;1.0" dur="19.200000000000003s" repeatCount="indefinite" calcMode="linear"/></polygon>
<circle cx="785.0" cy="50.5" r="3" fill="#9ca3af"><animate attributeName="cx" values="785.0;288.5;288.5;288.5;288.5;785.0;785.0;785.0;785.0;785.0;288.5;288.5;288.5;288.5;785.0;785.0;785.0;785.0;785.0;316.5;316.5;316.5;316.5;785.0;785.0;785.0;785.0;785.0;330.5;330.5;330.5;330.5;785.0;785.0;785.0;785.0;785.0;358.5;358.5;358.5;358.5;785.0;785.0;785.0;785.0;785.0;680.5;680.5;680.5;680.5;785.0;785.0;785.0;785.0" keyTimes="0.0;0.03;0.05333;0.07;0.08333;0.11333;0.13333;0.14667;0.16667;0.16667;0.19667;0.22;0.23667;0.25;0.28;0.3;0.31333;0.33333;0.33333;0.36333;0.38667;0.40333;0.41667;0.44667;0.46667;0.48;0.5;0.5;0.53;0.55333;0.57;0.58333;0.61333;0.63333;0.64667;0.66667;0.66667;0.69667;0.72;0.73667;0.75;0.78;0.8;0.81333;0.83333;0.83333;0.86333;0.88667;0.90333;0.91667;0.94667;0.96667;0.98;1.0" dur="19.200000000000003s" repeatCount="indefinite" calcMode="linear"/><animate attributeName="cy" values="50.5;-30.0;78.5;78.5;-30.0;-30.0;50.5;50.5;50.5;50.5;-30.0;50.5;50.5;-30.0;-30.0;50.5;50.5;50.5;50.5;-30.0;78.5;78.5;-30.0;-30.0;50.5;50.5;50.5;50.5;-30.0;36.5;36.5;-30.0;-30.0;50.5;50.5;50.5;50.5;-30.0;8.5;8.5;-30.0;-30.0;50.5;50.5;50.5;50.5;-30.0;8.5;8.5;-30.0;-30.0;50.5;50.5;50.5" keyTimes="0.0;0.03;0.05333;0.07;0.08333;0.11333;0.13333;0.14667;0.16667;0.16667;0.19667;0.22;0.23667;0.25;0.28;0.3;0.31333;0.33333;0.33333;0.36333;0.38667;0.40333;0.41667;0.44667;0.46667;0.48;0.5;0.5;0.53;0.55333;0.57;0.58333;0.61333;0.63333;0.64667;0.66667;0.66667;0.69667;0.72;0.73667;0.75;0.78;0.8;0.81333;0.83333;0.83333;0.86333;0.88667;0.90333;0.91667;0.94667;0.96667;0.98;1.0" dur="19.200000000000003s" repeatCount="indefinite" calcMode="linear"/></circle>
<rect x="779.0" y="44.5" width="12" height="5" rx="1.5" fill="#9ca3af"><animate attributeName="x" values="779.0;282.5;282.5;282.5;282.5;779.0;779.0;779.0;779.0;779.0;282.5;282.5;282.5;282.5;779.0;779.0;779.0;779.0;779.0;310.5;310.5;310.5;310.5;779.0;779.0;779.0;779.0;779.0;324.5;324.5;324.5;324.5;779.0;779.0;779.0;779.0;779.0;352.5;352.5;352.5;352.5;779.0;779.0;779.0;779.0;779.0;674.5;674.5;674.5;674.5;779.0;779.0;779.0;779.0" keyTimes="0.0;0.03;0.05333;0.07;0.08333;0.11333;0.13333;0.14667;0.16667;0.16667;0.19667;0.22;0.23667;0.25;0.28;0.3;0.31333;0.33333;0.33333;0.36333;0.38667;0.40333;0.41667;0.44667;0.46667;0.48;0.5;0.5;0.53;0.55333;0.57;0.58333;0.61333;0.63333;0.64667;0.66667;0.66667;0.69667;0.72;0.73667;0.75;0.78;0.8;0.81333;0.83333;0.83333;0.86333;0.88667;0.90333;0.91667;0.94667;0.96667;0.98;1.0" dur="19.200000000000003s" repeatCount="indefinite" calcMode="linear"/><animate attributeName="y" values="44.5;-36.0;72.5;72.5;-36.0;-36.0;44.5;44.5;44.5;44.5;-36.0;44.5;44.5;-36.0;-36.0;44.5;44.5;44.5;44.5;-36.0;72.5;72.5;-36.0;-36.0;44.5;44.5;44.5;44.5;-36.0;30.5;30.5;-36.0;-36.0;44.5;44.5;44.5;44.5;-36.0;2.5;2.5;-36.0;-36.0;44.5;44.5;44.5;44.5;-36.0;2.5;2.5;-36.0;-36.0;44.5;44.5;44.5" keyTimes="0.0;0.03;0.05333;0.07;0.08333;0.11333;0.13333;0.14667;0.16667;0.16667;0.19667;0.22;0.23667;0.25;0.28;0.3;0.31333;0.33333;0.33333;0.36333;0.38667;0.40333;0.41667;0.44667;0.46667;0.48;0.5;0.5;0.53;0.55333;0.57;0.58333;0.61333;0.63333;0.64667;0.66667;0.66667;0.69667;0.72;0.73667;0.75;0.78;0.8;0.81333;0.83333;0.83333;0.86333;0.88667;0.90333;0.91667;0.94667;0.96667;0.98;1.0" dur="19.200000000000003s" repeatCount="indefinite" calcMode="linear"/></rect>
</svg>