<svg xmlns="http://www.w3.org/2000/svg" viewBox="0 0 24 24" width="72" height="72" shape-rendering="crispEdges"><rect x="3" y="0" width="1" height="1" fill="#242937"/><rect x="4" y="0" width="1" height="1" fill="#242837"/><rect x="5" y="0" width="14" height="1" fill="#242938"/><rect x="19" y="0" width="1" height="1" fill="#242837"/><rect x="20" y="0" width="1" height="1" fill="#242937"/><rect x="2" y="1" width="1" height="1" fill="#242837"/><rect x="3" y="1" width="18" height="1" fill="#242938"/><rect x="21" y="1" width="1" height="1" fill="#242837"/><rect x="1" y="2" width="1" height="1" fill="#242837"/><rect x="2" y="2" width="20" height="1" fill="#242938"/><rect x="22" y="2" width="1" height="1" fill="#242837"/><rect x="0" y="3" width="1" height="1" fill="#242837"/><rect x="1" y="3" width="22" height="1" fill="#242938"/><rect x="23" y="3" width="1" height="1" fill="#242837"/><rect x="0" y="4" width="1" height="1" fill="#242837"/><rect x="1" y="4" width="8" height="1" fill="#242938"/><rect x="9" y="4" width="1" height="1" fill="#262f40"/><rect x="10" y="4" width="1" height="1" fill="#2f4760"/><rect x="11" y="4" width="2" height="1" fill="#396284"/><rect x="13" y="4" width="1" height="1" fill="#2f4760"/><rect x="14" y="4" width="1" height="1" fill="#262f40"/><rect x="15" y="4" width="8" height="1" fill="#242938"/><rect x="23" y="4" width="1" height="1" fill="#242837"/><rect x="0" y="5" width="7" height="1" fill="#242938"/><rect x="7" y="5" width="1" height="1" fill="#262f40"/><rect x="8" y="5" width="1" height="1" fill="#396284"/><rect x="9" y="5" width="1" height="1" fill="#509fd6"/><rect x="10" y="5" width="4" height="1" fill="#51a2da"/><rect x="14" y="5" width="1" height="1" fill="#509fd6"/><rect x="15" y="5" width="1" height="1" fill="#396284"/><rect x="16" y="5" width="1" height="1" fill="#262f40"/><rect x="17" y="5" width="7" height="1" fill="#242938"/><rect x="0" y="6" width="6" height="1" fill="#242938"/><rect x="6" y="6" width="1" height="1" fill="#262f40"/><rect x="7" y="6" width="1" height="1" fill="#4a8ebf"/><rect x="8" y="6" width="8" height="1" fill="#51a2da"/><rect x="16" y="6" width="1" height="1" fill="#4a8ebf"/><rect x="17" y="6" width="1" height="1" fill="#262f40"/><rect x="18" y="6" width="6" height="1" fill="#242938"/><rect x="0" y="7" width="5" height="1" fill="#242938"/><rect x="5" y="7" width="1" height="1" fill="#262f40"/><rect x="6" y="7" width="1" height="1" fill="#4a8ebf"/><rect x="7" y="7" width="5" height="1" fill="#51a2da"/><rect x="12" y="7" width="3" height="1" fill="#4a8ebf"/><rect x="15" y="7" width="2" height="1" fill="#51a2da"/><rect x="17" y="7" width="1" height="1" fill="#4a8ebf"/><rect x="18" y="7" width="1" height="1" fill="#262f40"/><rect x="19" y="7" width="5" height="1" fill="#242938"/><rect x="0" y="8" width="5" height="1" fill="#242938"/><rect x="5" y="8" width="1" height="1" fill="#396284"/><rect x="6" y="8" width="5" height="1" fill="#51a2da"/><rect x="11" y="8" width="1" height="1" fill="#4a8ebf"/><rect x="12" y="8" width="2" height="1" fill="#262f40"/><rect x="14" y="8" width="1" height="1" fill="#242938"/><rect x="15" y="8" width="1" height="1" fill="#396284"/><rect x="16" y="8" width="2" height="1" fill="#51a2da"/><rect x="18" y="8" width="1" height="1" fill="#396284"/><rect x="19" y="8" width="5" height="1" fill="#242938"/><rect x="0" y="9" width="4" height="1" fill="#242938"/><rect x="4" y="9" width="1" height="1" fill="#262f40"/><rect x="5" y="9" width="1" height="1" fill="#509fd6"/><rect x="6" y="9" width="5" height="1" fill="#51a2da"/><rect x="11" y="9" width="1" height="1" fill="#2f4760"/><rect x="12" y="9" width="1" height="1" fill="#396284"/><rect x="13" y="9" width="1" height="1" fill="#51a2da"/><rect x="14" y="9" width="1" height="1" fill="#396284"/><rect x="15" y="9" width="1" height="1" fill="#262f40"/><rect x="16" y="9" width="2" height="1" fill="#51a2da"/><rect x="18" y="9" width="1" height="1" fill="#509fd6"/><rect x="19" y="9" width="1" height="1" fill="#262f40"/><rect x="20" y="9" width="4" height="1" fill="#242938"/><rect x="0" y="10" width="4" height="1" fill="#242938"/><rect x="4" y="10" width="1" height="1" fill="#2f4760"/><rect x="5" y="10" width="6" height="1" fill="#51a2da"/><rect x="11" y="10" width="1" height="1" fill="#2f4760"/><rect x="12" y="10" width="1" height="1" fill="#396284"/><rect x="13" y="10" width="1" height="1" fill="#51a2da"/><rect x="14" y="10" width="1" height="1" fill="#4a8ebf"/><rect x="15" y="10" width="1" height="1" fill="#2f4760"/><rect x="16" y="10" width="3" height="1" fill="#51a2da"/><rect x="19" y="10" width="1" height="1" fill="#2f4760"/><rect x="20" y="10" width="4" height="1" fill="#242938"/><rect x="0" y="11" width="4" height="1" fill="#242938"/><rect x="4" y="11" width="1" height="1" fill="#396284"/><rect x="5" y="11" width="3" height="1" fill="#51a2da"/><rect x="8" y="11" width="1" height="1" fill="#51a2d9"/><rect x="9" y="11" width="2" height="1" fill="#4a8ebf"/><rect x="11" y="11" width="1" height="1" fill="#2f4760"/><rect x="12" y="11" width="1" height="1" fill="#396284"/><rect x="13" y="11" width="1" height="1" fill="#4a8ebf"/><rect x="14" y="11" width="5" height="1" fill="#51a2da"/><rect x="19" y="11" width="1" height="1" fill="#396284"/><rect x="20" y="11" width="4" height="1" fill="#242938"/><rect x="0" y="12" width="4" height="1" fill="#242938"/><rect x="4" y="12" width="1" height="1" fill="#396284"/><rect x="5" y="12" width="2" height="1" fill="#51a2da"/><rect x="7" y="12" width="1" height="1" fill="#4a8ebf"/><rect x="8" y="12" width="1" height="1" fill="#262f40"/><rect x="9" y="12" width="1" height="1" fill="#242938"/><rect x="10" y="12" width="2" height="1" fill="#2f4760"/><rect x="12" y="12" width="2" height="1" fill="#242938"/><rect x="14" y="12" width="1" height="1" fill="#509fd6"/><rect x="15" y="12" width="4" height="1" fill="#51a2da"/><rect x="19" y="12" width="1" height="1" fill="#396284"/><rect x="20" y="12" width="4" height="1" fill="#242938"/><rect x="0" y="13" width="4" height="1" fill="#242938"/><rect x="4" y="13" width="1" height="1" fill="#396284"/><rect x="5" y="13" width="2" height="1" fill="#51a2da"/><rect x="7" y="13" width="2" height="1" fill="#2f4760"/><rect x="9" y="13" width="1" height="1" fill="#4a8ebf"/><rect x="10" y="13" width="1" height="1" fill="#509fd6"/><rect x="11" y="13" width="1" height="1" fill="#2f4760"/><rect x="12" y="13" width="1" height="1" fill="#396284"/><rect x="13" y="13" width="1" height="1" fill="#509fd6"/><rect x="14" y="13" width="5" height="1" fill="#51a2da"/><rect x="19" y="13" width="1" height="1" fill="#2f4760"/><rect x="20" y="13" width="4" height="1" fill="#242938"/><rect x="0" y="14" width="4" height="1" fill="#242938"/><rect x="4" y="14" width="1" height="1" fill="#396284"/><rect x="5" y="14" width="1" height="1" fill="#51a2da"/><rect x="6" y="14" width="1" height="1" fill="#509fd6"/><rect x="7" y="14" width="1" height="1" fill="#242938"/><rect x="8" y="14" width="1" height="1" fill="#4a8ebf"/><rect x="9" y="14" width="2" height="1" fill="#51a2da"/><rect x="11" y="14" width="1" height="1" fill="#2f4760"/><rect x="12" y="14" width="1" height="1" fill="#396284"/><rect x="13" y="14" width="5" height="1" fill="#51a2da"/><rect x="18" y="14" width="1" height="1" fill="#509fd6"/><rect x="19" y="14" width="1" height="1" fill="#262f40"/><rect x="20" y="14" width="4" height="1" fill="#242938"/><rect x="0" y="15" width="4" height="1" fill="#242938"/><rect x="4" y="15" width="1" height="1" fill="#396284"/><rect x="5" y="15" width="1" height="1" fill="#51a2da"/><rect x="6" y="15" width="1" height="1" fill="#51a2d9"/><rect x="7" y="15" width="1" height="1" fill="#262f40"/><rect x="8" y="15" width="1" height="1" fill="#396284"/><rect x="9" y="15" width="1" height="1" fill="#51a2d9"/><rect x="10" y="15" width="1" height="1" fill="#4a8ebf"/><rect x="11" y="15" width="1" height="1" fill="#262f40"/><rect x="12" y="15" width="1" height="1" fill="#4a8ebf"/><rect x="13" y="15" width="5" height="1" fill="#51a2da"/><rect x="18" y="15" width="1" height="1" fill="#396284"/><rect x="19" y="15" width="5" height="1" fill="#242938"/><rect x="0" y="16" width="4" height="1" fill="#242938"/><rect x="4" y="16" width="1" height="1" fill="#396284"/><rect x="5" y="16" width="2" height="1" fill="#51a2da"/><rect x="7" y="16" width="1" height="1" fill="#4a8ebf"/><rect x="8" y="16" width="2" height="1" fill="#262f40"/><rect x="10" y="16" width="1" height="1" fill="#242938"/><rect x="11" y="16" width="1" height="1" fill="#396284"/><rect x="12" y="16" width="5" height="1" fill="#51a2da"/><rect x="17" y="16" width="1" height="1" fill="#4a8ebf"/><rect x="18" y="16" width="1" height="1" fill="#262f40"/><rect x="19" y="16" width="5" height="1" fill="#242938"/><rect x="0" y="17" width="4" height="1" fill="#242938"/><rect x="4" y="17" width="1" height="1" fill="#396284"/><rect x="5" y="17" width="3" height="1" fill="#51a2da"/><rect x="8" y="17" width="1" height="1" fill="#509fd6"/><rect x="9" y="17" width="2" height="1" fill="#4a8ebf"/><rect x="11" y="17" width="5" height="1" fill="#51a2da"/><rect x="16" y="17" width="1" height="1" fill="#4a8ebf"/><rect x="17" y="17" width="1" height="1" fill="#262f40"/><rect x="18" y="17" width="6" height="1" fill="#242938"/><rect x="0" y="18" width="4" height="1" fill="#242938"/><rect x="4" y="18" width="1" height="1" fill="#2f4760"/><rect x="5" y="18" width="1" height="1" fill="#51a2d9"/><rect x="6" y="18" width="8" height="1" fill="#51a2da"/><rect x="14" y="18" width="1" height="1" fill="#509fd6"/><rect x="15" y="18" width="1" height="1" fill="#396284"/><rect x="16" y="18" width="1" height="1" fill="#262f40"/><rect x="17" y="18" width="7" height="1" fill="#242938"/><rect x="0" y="19" width="1" height="1" fill="#242837"/><rect x="1" y="19" width="4" height="1" fill="#242938"/><rect x="5" y="19" width="1" height="1" fill="#2f4760"/><rect x="6" y="19" width="7" height="1" fill="#396284"/><rect x="13" y="19" width="1" height="1" fill="#2f4760"/><rect x="14" y="19" width="1" height="1" fill="#262f40"/><rect x="15" y="19" width="8" height="1" fill="#242938"/><rect x="23" y="19" width="1" height="1" fill="#242837"/><rect x="0" y="20" width="1" height="1" fill="#242837"/><rect x="1" y="20" width="22" height="1" fill="#242938"/><rect x="23" y="20" width="1" height="1" fill="#242837"/><rect x="1" y="21" width="1" height="1" fill="#242837"/><rect x="2" y="21" width="20" height="1" fill="#242938"/><rect x="22" y="21" width="1" height="1" fill="#242837"/><rect x="2" y="22" width="1" height="1" fill="#242837"/><rect x="3" y="22" width="18" height="1" fill="#242938"/><rect x="21" y="22" width="1" height="1" fill="#242837"/><rect x="3" y="23" width="1" height="1" fill="#242937"/><rect x="4" y="23" width="1" height="1" fill="#242837"/><rect x="5" y="23" width="14" height="1" fill="#242938"/><rect x="19" y="23" width="1" height="1" fill="#242837"/><rect x="20" y="23" width="1" height="1" fill="#242937"/></svg>