<svg xmlns="http://www.w3.org/2000/svg" viewBox="0 0 24 24" width="72" height="72" shape-rendering="crispEdges"><rect x="3" y="0" width="3" height="1" fill="#f3f1ec"/><rect x="6" y="0" width="12" height="1" fill="#f4f2ed"/><rect x="18" y="0" width="3" height="1" fill="#f3f1ec"/><rect x="2" y="1" width="1" height="1" fill="#f4f2ec"/><rect x="3" y="1" width="18" height="1" fill="#f4f2ed"/><rect x="21" y="1" width="1" height="1" fill="#f4f2ec"/><rect x="1" y="2" width="1" height="1" fill="#f4f2ec"/><rect x="2" y="2" width="7" height="1" fill="#f4f2ed"/><rect x="9" y="2" width="6" height="1" fill="#f3f1ec"/><rect x="15" y="2" width="7" height="1" fill="#f4f2ed"/><rect x="22" y="2" width="1" height="1" fill="#f4f2ec"/><rect x="0" y="3" width="1" height="1" fill="#f3f1ec"/><rect x="1" y="3" width="6" height="1" fill="#f4f2ed"/><rect x="7" y="3" width="1" height="1" fill="#f3f1ec"/><rect x="8" y="3" width="1" height="1" fill="#92a7a3"/><rect x="9" y="3" width="6" height="1" fill="#3773a5"/><rect x="15" y="3" width="1" height="1" fill="#92a7a3"/><rect x="16" y="3" width="1" height="1" fill="#f3f1ec"/><rect x="17" y="3" width="6" height="1" fill="#f4f2ed"/><rect x="23" y="3" width="1" height="1" fill="#f3f1ec"/><rect x="0" y="4" width="1" height="1" fill="#f4f2ec"/><rect x="1" y="4" width="6" height="1" fill="#f4f2ed"/><rect x="7" y="4" width="1" height="1" fill="#92a7a3"/><rect x="8" y="4" width="1" height="1" fill="#3773a5"/><rect x="9" y="4" width="1" height="1" fill="#f3f1ec"/><rect x="10" y="4" width="6" height="1" fill="#3773a5"/><rect x="16" y="4" width="1" height="1" fill="#92a7a3"/><rect x="17" y="4" width="6" height="1" fill="#f4f2ed"/><rect x="23" y="4" width="1" height="1" fill="#f3f1ec"/><rect x="0" y="5" width="1" height="1" fill="#f3f1ec"/><rect x="1" y="5" width="6" height="1" fill="#f4f2ed"/><rect x="7" y="5" width="1" height="1" fill="#92a7a3"/><rect x="8" y="5" width="1" height="1" fill="#3773a5"/><rect x="9" y="5" width="1" height="1" fill="#f3f1ec"/><rect x="10" y="5" width="6" height="1" fill="#3773a5"/><rect x="16" y="5" width="1" height="1" fill="#92a7a3"/><rect x="17" y="5" width="6" height="1" fill="#f4f2ed"/><rect x="23" y="5" width="1" height="1" fill="#f3f1ec"/><rect x="0" y="6" width="7" height="1" fill="#f4f2ed"/><rect x="7" y="6" width="1" height="1" fill="#92a7a3"/><rect x="8" y="6" width="7" height="1" fill="#3773a5"/><rect x="15" y="6" width="1" height="1" fill="#366d9b"/><rect x="16" y="6" width="1" height="1" fill="#92a7a3"/><rect x="17" y="6" width="7" height="1" fill="#f4f2ed"/><rect x="0" y="7" width="4" height="1" fill="#f4f2ed"/><rect x="4" y="7" width="1" height="1" fill="#f3f1ec"/><rect x="5" y="7" width="7" height="1" fill="#92a7a3"/><rect x="12" y="7" width="2" height="1" fill="#3773a5"/><rect x="14" y="7" width="2" height="1" fill="#366d9b"/><rect x="16" y="7" width="1" height="1" fill="#92a7a3"/><rect x="17" y="7" width="2" height="1" fill="#ecda99"/><rect x="19" y="7" width="1" height="1" fill="#f6e8b9"/><rect x="20" y="7" width="1" height="1" fill="#f4f2ec"/><rect x="21" y="7" width="3" height="1" fill="#f4f2ed"/><rect x="0" y="8" width="3" height="1" fill="#f4f2ed"/><rect x="3" y="8" width="1" height="1" fill="#92a7a3"/><rect x="4" y="8" width="9" height="1" fill="#3773a5"/><rect x="13" y="8" width="3" height="1" fill="#366d9b"/><rect x="16" y="8" width="1" height="1" fill="#92a7a3"/><rect x="17" y="8" width="3" height="1" fill="#ffd446"/><rect x="20" y="8" width="1" height="1" fill="#ecda99"/><rect x="21" y="8" width="3" height="1" fill="#f4f2ed"/><rect x="0" y="9" width="2" height="1" fill="#f4f2ed"/><rect x="2" y="9" width="1" height="1" fill="#f3f1ec"/><rect x="3" y="9" width="9" height="1" fill="#3773a5"/><rect x="12" y="9" width="4" height="1" fill="#366d9b"/><rect x="16" y="9" width="1" height="1" fill="#92a7a3"/><rect x="17" y="9" width="4" height="1" fill="#ffd446"/><rect x="21" y="9" width="1" height="1" fill="#f4f1ec"/><rect x="22" y="9" width="2" height="1" fill="#f4f2ed"/><rect x="0" y="10" width="2" height="1" fill="#f4f2ed"/><rect x="2" y="10" width="1" height="1" fill="#f3f1ec"/><rect x="3" y="10" width="8" height="1" fill="#3773a5"/><rect x="11" y="10" width="5" height="1" fill="#366d9b"/><rect x="16" y="10" width="1" height="1" fill="#f6e8b9"/><rect x="17" y="10" width="4" height="1" fill="#ffd446"/><rect x="21" y="10" width="1" height="1" fill="#f6e8b9"/><rect x="22" y="10" width="2" height="1" fill="#f4f2ed"/><rect x="0" y="11" width="2" height="1" fill="#f4f2ed"/><rect x="2" y="11" width="1" height="1" fill="#92a7a3"/><rect x="3" y="11" width="11" height="1" fill="#3773a5"/><rect x="14" y="11" width="2" height="1" fill="#92a7a3"/><rect x="16" y="11" width="1" height="1" fill="#ecda99"/><rect x="17" y="11" width="4" height="1" fill="#ffd446"/><rect x="21" y="11" width="1" height="1" fill="#f6e8b9"/><rect x="22" y="11" width="2" height="1" fill="#f4f2ed"/><rect x="0" y="12" width="2" height="1" fill="#f4f2ed"/><rect x="2" y="12" width="1" height="1" fill="#92a7a3"/><rect x="3" y="12" width="4" height="1" fill="#3773a5"/><rect x="7" y="12" width="1" height="1" fill="#92a7a3"/><rect x="8" y="12" width="1" height="1" fill="#f6e8b9"/><rect x="9" y="12" width="6" height="1" fill="#ecda99"/><rect x="15" y="12" width="6" height="1" fill="#ffd446"/><rect x="21" y="12" width="1" height="1" fill="#f6e8b9"/><rect x="22" y="12" width="2" height="1" fill="#f4f2ed"/><rect x="0" y="13" width="2" height="1" fill="#f4f2ed"/><rect x="2" y="13" width="1" height="1" fill="#f3f1ec"/><rect x="3" y="13" width="4" height="1" fill="#3773a5"/><rect x="7" y="13" width="1" height="1" fill="#f6e8b9"/><rect x="8" y="13" width="13" height="1" fill="#ffd446"/><rect x="21" y="13" width="1" height="1" fill="#f6e8b9"/><rect x="22" y="13" width="2" height="1" fill="#f4f2ed"/><rect x="0" y="14" width="2" height="1" fill="#f4f2ed"/><rect x="2" y="14" width="1" height="1" fill="#f3f1ec"/><rect x="3" y="14" width="4" height="1" fill="#3773a5"/><rect x="7" y="14" width="1" height="1" fill="#ecda99"/><rect x="8" y="14" width="13" height="1" fill="#ffd446"/><rect x="21" y="14" width="1" height="1" fill="#f4f1ec"/><rect x="22" y="14" width="2" height="1" fill="#f4f2ed"/><rect x="0" y="15" width="3" height="1" fill="#f4f2ed"/><rect x="3" y="15" width="1" height="1" fill="#92a7a3"/><rect x="4" y="15" width="3" height="1" fill="#3773a5"/><rect x="7" y="15" width="1" height="1" fill="#ecda99"/><rect x="8" y="15" width="12" height="1" fill="#ffd446"/><rect x="20" y="15" width="1" height="1" fill="#ecda99"/><rect x="21" y="15" width="3" height="1" fill="#f4f2ed"/><rect x="0" y="16" width="3" height="1" fill="#f4f2ed"/><rect x="3" y="16" width="1" height="1" fill="#f3f1ec"/><rect x="4" y="16" width="3" height="1" fill="#92a7a3"/><rect x="7" y="16" width="1" height="1" fill="#ecda99"/><rect x="8" y="16" width="4" height="1" fill="#ffd446"/><rect x="12" y="16" width="7" height="1" fill="#ecda99"/><rect x="19" y="16" width="1" height="1" fill="#f6e8b9"/><rect x="20" y="16" width="4" height="1" fill="#f4f2ed"/><rect x="0" y="17" width="7" height="1" fill="#f4f2ed"/><rect x="7" y="17" width="1" height="1" fill="#ecda99"/><rect x="8" y="17" width="8" height="1" fill="#ffd446"/><rect x="16" y="17" width="1" height="1" fill="#ecda99"/><rect x="17" y="17" width="7" height="1" fill="#f4f2ed"/><rect x="0" y="18" width="1" height="1" fill="#f3f1ec"/><rect x="1" y="18" width="6" height="1" fill="#f4f2ed"/><rect x="7" y="18" width="1" height="1" fill="#ecda99"/><rect x="8" y="18" width="6" height="1" fill="#ffd446"/><rect x="14" y="18" width="1" height="1" fill="#f6e8b9"/><rect x="15" y="18" width="1" height="1" fill="#ffd446"/><rect x="16" y="18" width="1" height="1" fill="#ecda99"/><rect x="17" y="18" width="6" height="1" fill="#f4f2ed"/><rect x="23" y="18" width="1" height="1" fill="#f3f1ec"/><rect x="0" y="19" width="1" height="1" fill="#f3f1ec"/><rect x="1" y="19" width="6" height="1" fill="#f4f2ed"/><rect x="7" y="19" width="1" height="1" fill="#f6e8b9"/><rect x="8" y="19" width="6" height="1" fill="#ffd446"/><rect x="14" y="19" width="1" height="1" fill="#f4f1ec"/><rect x="15" y="19" width="1" height="1" fill="#ffd446"/><rect x="16" y="19" width="1" height="1" fill="#ecda99"/><rect x="17" y="19" width="6" height="1" fill="#f4f2ed"/><rect x="23" y="19" width="1" height="1" fill="#f3f1ec"/><rect x="0" y="20" width="1" height="1" fill="#f3f1ec"/><rect x="1" y="20" width="6" height="1" fill="#f4f2ed"/><rect x="7" y="20" width="1" height="1" fill="#f4f1ec"/><rect x="8" y="20" width="1" height="1" fill="#ecda99"/><rect x="9" y="20" width="7" height="1" fill="#ffd446"/><rect x="16" y="20" width="1" height="1" fill="#f4f1ec"/><rect x="17" y="20" width="7" height="1" fill="#f4f2ed"/><rect x="1" y="21" width="1" height="1" fill="#f4f2ec"/><rect x="2" y="21" width="7" height="1" fill="#f4f2ed"/><rect x="9" y="21" width="1" height="1" fill="#f4f1ec"/><rect x="10" y="21" width="4" height="1" fill="#f6e8b9"/><rect x="14" y="21" width="1" height="1" fill="#f4f1ec"/><rect x="15" y="21" width="7" height="1" fill="#f4f2ed"/><rect x="22" y="21" width="1" height="1" fill="#f4f2ec"/><rect x="2" y="22" width="1" height="1" fill="#f4f2ec"/><rect x="3" y="22" width="18" height="1" fill="#f4f2ed"/><rect x="21" y="22" width="1" height="1" fill="#f4f2ec"/><rect x="3" y="23" width="1" height="1" fill="#f4f2ed"/><rect x="4" y="23" width="2" height="1" fill="#f3f1ec"/><rect x="6" y="23" width="12" height="1" fill="#f4f2ed"/><rect x="18" y="23" width="2" height="1" fill="#f3f1ec"/><rect x="20" y="23" width="1" height="1" fill="#f4f2ed"/></svg>